# xmcd
#
# Track frame offsets:
#	150
#	19650
#	32400
#	49200
#	66222
#	84752
#	99897
#	122700
#	145650
#	158550
#
# Disc length: 2323 seconds
#
# Revision: 0
# Processed by: cddbd v1.5.2PL0 Copyright (c) Steve Scherf et al.
# Submitted via: EasyCDDAExtractor 11.0.2.1
#
DISCID=6d09110a
DTITLE=Rocio Jurado - Como Una Ola
DYEAR=1981
DGENRE=Latin
TTITLE0=Como Una Ola
TTITLE1=A Ti
TTITLE2=Muera El Amor
TTITLE3=Por La Puerta Mas Pequeña
TTITLE4=Todavia Tengo Orgullo
TTITLE5=A Pesar De Todo
TTITLE6=Pueblo Mio
TTITLE7=De Quien Sera La Culpa
TTITLE8=Naranja Pero Limon
TTITLE9=Lo Vas A Conseguir
EXTD=
EXTT0=
EXTT1=
EXTT2=
EXTT3=
EXTT4=
EXTT5=
EXTT6=
EXTT7=
EXTT8=
EXTT9=
PLAYORDER=
